<svg xmlns="http://www.w3.org/2000/svg" width="10" height="14" viewBox="0 0 10 14" fill="none">
  <path d="M 8.571 0 C 8.95 0 9.314 0.164 9.582 0.456 C 9.85 0.748 10 1.143 10 1.556 L 10 14 L 5 10.111 L 0 14 L 0 1.556 C 0 1.195 0.115 0.846 0.323 0.569 L 0.418 0.456 C 0.652 0.201 0.96 0.043 1.287 0.008 L 1.429 0 L 8.571 0 Z M 1.429 1 C 1.344 1 1.243 1.036 1.155 1.132 C 1.064 1.231 1 1.382 1 1.556 L 1 11.955 L 4.386 9.321 L 5 8.845 L 5.614 9.321 L 9 11.955 L 9 1.556 C 9 1.382 8.936 1.231 8.845 1.132 C 8.757 1.036 8.656 1 8.571 1 L 1.429 1 Z" fill="currentColor" fill-rule="nonzero"/>
</svg>
