<svg xmlns="http://www.w3.org/2000/svg" width="15.000" height="15" viewBox="0 0 15.000 15" fill="none">
  <path d="M 5.846 0.184 C 7.424 -0.172 9.075 -0.009 10.552 0.649 L 10.348 1.106 L 10.145 1.562 C 8.865 0.992 7.434 0.851 6.067 1.16 C 4.7 1.469 3.469 2.211 2.558 3.276 C 1.648 4.342 1.106 5.673 1.013 7.072 C 0.921 8.471 1.284 9.862 2.047 11.038 C 2.809 12.214 3.932 13.112 5.247 13.597 C 6.561 14.083 7.998 14.131 9.342 13.733 C 10.687 13.336 11.866 12.514 12.706 11.391 C 13.492 10.339 13.94 9.074 13.994 7.765 L 14 7.504 L 14 6.86 L 15 6.86 L 15 7.504 C 14.999 9.121 14.475 10.695 13.506 11.99 C 12.538 13.285 11.177 14.234 9.627 14.692 C 8.076 15.151 6.417 15.095 4.9 14.535 C 3.383 13.974 2.088 12.938 1.208 11.582 C 0.328 10.225 -0.09 8.62 0.016 7.007 C 0.123 5.393 0.748 3.856 1.798 2.627 C 2.849 1.398 4.269 0.541 5.846 0.184 Z M 12.831 4.874 L 7.184 9.874 L 6.852 10.168 L 6.521 9.874 L 4.169 7.791 L 4.5 7.417 L 4.831 7.042 L 6.852 8.832 L 12.169 4.126 L 12.831 4.874 Z" fill="currentColor" fill-rule="evenodd"/>
</svg>
