<svg xmlns="http://www.w3.org/2000/svg" width="12" height="12" viewBox="0 0 12 12" fill="none">
  <path d="M 1 10.5 C 1 10.776 1.224 11 1.5 11 L 4 11 L 4 12 L 1.5 12 C 0.672 12 0 11.328 0 10.5 L 0 8 L 1 8 L 1 10.5 Z M 12 10.5 C 12 11.328 11.328 12 10.5 12 L 8 12 L 8 11 L 10.5 11 C 10.776 11 11 10.776 11 10.5 L 11 8 L 12 8 L 12 10.5 Z M 4 1 L 1.5 1 C 1.224 1 1 1.224 1 1.5 L 1 4 L 0 4 L 0 1.5 C 0 0.672 0.672 0 1.5 0 L 4 0 L 4 1 Z M 10.5 0 C 11.328 0 12 0.672 12 1.5 L 12 4 L 11 4 L 11 1.5 C 11 1.224 10.776 1 10.5 1 L 8 1 L 8 0 L 10.5 0 Z" fill="currentColor" fill-rule="nonzero"/>
</svg>
