<svg xmlns="http://www.w3.org/2000/svg" width="10" height="10" viewBox="0 0 10 10" fill="none">
  <path d="M 8.889 0 C 9.502 0 10 0.498 10 1.111 L 10 8.889 C 10 9.502 9.502 10 8.889 10 L 1.111 10 L 0.997 9.994 C 0.437 9.937 0 9.464 0 8.889 L 0 1.111 C 0 0.536 0.437 0.063 0.997 0.006 L 1.111 0 L 8.889 0 Z M 1.111 1 C 1.05 1 1 1.05 1 1.111 L 1 8.889 C 1 8.95 1.05 9 1.111 9 L 3.258 9 L 7.442 3.69 L 7.825 3.206 L 8.22 3.68 L 9 4.616 L 9 1.111 C 9 1.05 8.95 1 8.889 1 L 1.111 1 Z M 4.53 9 L 8.889 9 C 8.95 9 9 8.95 9 8.889 L 9 6.182 L 7.846 4.794 L 4.53 9 Z M 3.5 2 C 4.328 2 5 2.672 5 3.5 C 5 4.328 4.328 5 3.5 5 C 2.672 5 2 4.328 2 3.5 C 2 2.672 2.672 2 3.5 2 Z M 3.5 3 C 3.224 3 3 3.224 3 3.5 C 3 3.776 3.224 4 3.5 4 C 3.776 4 4 3.776 4 3.5 C 4 3.224 3.776 3 3.5 3 Z" fill="currentColor" fill-rule="nonzero"/>
</svg>
