<svg xmlns="http://www.w3.org/2000/svg" width="14.060" height="14.060" viewBox="0 0 14.060 14.060" fill="none">
  <path d="M 7.03 0 C 3.147 0 0 3.147 0 7.03 C 0 10.913 3.147 14.06 7.03 14.06 C 10.913 14.06 14.06 10.913 14.06 7.03 C 14.06 3.147 10.913 0 7.03 0 Z M 0.95 7.03 C 0.95 3.672 3.672 0.95 7.03 0.95 C 10.388 0.95 13.11 3.672 13.11 7.03 C 13.11 10.388 10.388 13.11 7.03 13.11 C 3.672 13.11 0.95 10.388 0.95 7.03 Z M 7.83 3.832 C 7.83 4.273 7.472 4.631 7.03 4.631 C 6.589 4.631 6.23 4.273 6.23 3.832 C 6.23 3.39 6.589 3.032 7.03 3.032 C 7.472 3.032 7.83 3.39 7.83 3.832 Z M 5.464 5.464 L 5.964 5.464 L 7.03 5.464 C 7.306 5.464 7.53 5.688 7.53 5.964 L 7.53 9.729 L 8.097 9.729 L 8.597 9.729 L 8.597 10.729 L 8.097 10.729 L 7.03 10.729 L 5.964 10.729 L 5.464 10.729 L 5.464 9.729 L 5.964 9.729 L 6.53 9.729 L 6.53 6.464 L 5.964 6.464 L 5.464 6.464 L 5.464 5.464 Z" fill="currentColor" fill-rule="evenodd"/>
</svg>
