<svg xmlns="http://www.w3.org/2000/svg" width="10" height="10.097" viewBox="0 0 10 10.097" fill="none">
  <path d="M 10 7.097 C 10 8.201 9.105 9.097 8 9.097 C 6.895 9.097 6 8.201 6 7.097 C 6 5.992 6.895 5.097 8 5.097 C 8.365 5.097 8.706 5.196 9 5.366 L 9 1.192 L 4 2.081 L 4 8.097 C 4 9.201 3.105 10.097 2 10.097 C 0.895 10.097 0 9.201 0 8.097 C 0 6.992 0.895 6.097 2 6.097 C 2.365 6.097 2.706 6.196 3 6.366 L 3 1.244 L 3.412 1.171 L 9.412 0.104 L 10 0 L 10 7.097 Z M 2 7.097 C 1.448 7.097 1 7.544 1 8.097 C 1 8.649 1.448 9.097 2 9.097 C 2.552 9.097 3 8.649 3 8.097 C 3 7.544 2.552 7.097 2 7.097 Z M 8 6.097 C 7.448 6.097 7 6.544 7 7.097 C 7 7.649 7.448 8.097 8 8.097 C 8.552 8.097 9 7.649 9 7.097 C 9 6.544 8.552 6.097 8 6.097 Z" fill="currentColor" fill-rule="nonzero"/>
</svg>
