<svg xmlns="http://www.w3.org/2000/svg" width="14.124" height="9.655" viewBox="0 0 14.124 9.655" fill="none">
  <path d="M 14.124 9.655 L 0.124 9.655 L 0.124 8.655 L 14.124 8.655 L 14.124 9.655 Z M 2.393 1.057 C 1.876 1.154 1.512 1.528 1.303 2.18 C 1.198 2.501 1.146 2.819 1.146 3.134 L 1.146 3.235 C 1.153 3.258 1.161 3.314 1.168 3.403 L 3.393 3.403 L 3.393 5.852 L 0 5.852 L 0 3.595 C 0 2.487 0.221 1.633 0.663 1.034 C 1.105 0.435 1.681 0.09 2.393 0 L 2.393 1.057 Z M 7.177 1.057 C 6.765 1.124 6.451 1.356 6.233 1.753 C 6.024 2.15 5.919 2.607 5.919 3.123 L 5.919 3.258 C 5.926 3.303 5.938 3.351 5.953 3.403 L 8.177 3.403 L 8.177 5.852 L 4.773 5.852 L 4.773 3.595 C 4.773 2.704 4.961 1.91 5.335 1.214 C 5.709 0.51 6.323 0.105 7.177 0 L 7.177 1.057 Z M 14.124 5.655 L 10.124 5.655 L 10.124 4.655 L 14.124 4.655 L 14.124 5.655 Z M 14.124 1.655 L 10.124 1.655 L 10.124 0.655 L 14.124 0.655 L 14.124 1.655 Z" fill="currentColor" fill-rule="evenodd"/>
</svg>
