<svg xmlns="http://www.w3.org/2000/svg" width="16" height="15" viewBox="0 0 16 15" fill="none">
  <path d="M 12.154 5.004 C 13.739 5.084 15 6.395 15 8 C 15.552 8 16 8.448 16 9 L 16 11 C 16 11.552 15.552 12 15 12 L 14.996 12.154 C 14.918 13.688 13.688 14.918 12.154 14.996 L 12 15 L 4 15 C 2.395 15 1.084 13.739 1.004 12.154 L 1 12 C 0.448 12 0 11.552 0 11 L 0 9 C 0 8.448 0.448 8 1 8 C 1 6.343 2.343 5 4 5 L 7.5 5 L 7.5 3.934 C 6.638 3.711 6 2.932 6 2 C 6 0.895 6.895 0 8 0 C 9.105 0 10 0.895 10 2 C 10 2.932 9.362 3.711 8.5 3.934 L 8.5 5 L 12 5 L 12.154 5.004 Z M 4 6 C 2.895 6 2 6.895 2 8 L 2 12 C 2 13.105 2.895 14 4 14 L 12 14 C 13.105 14 14 13.105 14 12 L 14 8 C 14 6.895 13.105 6 12 6 L 4 6 Z M 6 8 C 6.552 8 7 8.448 7 9 L 7 11 C 7 11.552 6.552 12 6 12 C 5.448 12 5 11.552 5 11 L 5 9 C 5 8.448 5.448 8 6 8 Z M 10 8 C 10.552 8 11 8.448 11 9 L 11 11 C 11 11.552 10.552 12 10 12 C 9.448 12 9 11.552 9 11 L 9 9 C 9 8.448 9.448 8 10 8 Z M 8 1 C 7.448 1 7 1.448 7 2 C 7 2.552 7.448 3 8 3 C 8.552 3 9 2.552 9 2 C 9 1.448 8.552 1 8 1 Z" fill="currentColor" fill-rule="nonzero"/>
</svg>
