<svg xmlns="http://www.w3.org/2000/svg" width="12.466" height="12.515" viewBox="0 0 12.466 12.515" fill="none">
  <path d="M 6.466 9.281 L 3.232 12.515 L 0 9.281 L 3.232 6.048 L 6.466 9.281 Z M 12.466 12.048 L 7.466 12.048 L 7.466 7.048 L 12.466 7.048 L 12.466 12.048 Z M 1.414 9.281 L 3.232 11.101 L 5.052 9.281 L 3.232 7.462 L 1.414 9.281 Z M 8.466 11.048 L 11.466 11.048 L 11.466 8.048 L 8.466 8.048 L 8.466 11.048 Z M 5.466 5 L 0.466 5 L 0.466 0 L 5.466 0 L 5.466 5 Z M 10.466 2 L 12.466 2 L 12.466 3 L 10.466 3 L 10.466 5 L 9.466 5 L 9.466 3 L 7.466 3 L 7.466 2 L 9.466 2 L 9.466 0 L 10.466 0 L 10.466 2 Z M 1.466 4 L 4.466 4 L 4.466 1 L 1.466 1 L 1.466 4 Z" fill="currentColor" fill-rule="evenodd"/>
</svg>
