<svg xmlns="http://www.w3.org/2000/svg" width="16" height="16" viewBox="0 0 16 16" fill="none">
  <path d="M 16 13 C 16 14.105 15.105 15 14 15 C 12.895 15 12 14.105 12 13 C 12 11.895 12.895 11 14 11 C 14.365 11 14.706 11.099 15 11.27 L 15 7.096 L 10 7.984 L 10 14 C 10 15.105 9.105 16 8 16 C 6.895 16 6 15.105 6 14 C 6 12.895 6.895 12 8 12 C 8.365 12 8.706 12.099 9 12.27 L 9 7.147 L 9.412 7.074 L 15.412 6.008 L 16 5.903 L 16 13 Z M 8 13 C 7.448 13 7 13.448 7 14 C 7 14.552 7.448 15 8 15 C 8.552 15 9 14.552 9 14 C 9 13.448 8.552 13 8 13 Z M 14 12 C 13.448 12 13 12.448 13 13 C 13 13.552 13.448 14 14 14 C 14.552 14 15 13.552 15 13 C 15 12.448 14.552 12 14 12 Z M 9.777 0 C 10.452 0 11 0.548 11 1.223 L 11 4 L 10 4 L 10 1.223 C 10 1.1 9.9 1 9.777 1 L 1.223 1 C 1.1 1 1 1.1 1 1.223 L 1 9.777 C 1 9.9 1.1 10 1.223 10 L 6 10 L 6 11 L 1.223 11 L 1.098 10.994 C 0.481 10.932 0 10.41 0 9.777 L 0 1.223 C 0 0.59 0.481 0.068 1.098 0.006 L 1.223 0 L 9.777 0 Z M 8 5.5 L 4 8 L 4 3 L 8 5.5 Z" fill="currentColor" fill-rule="nonzero"/>
</svg>
