<svg xmlns="http://www.w3.org/2000/svg" width="16" height="14" viewBox="0 0 16 14" fill="none">
  <path d="M 14.549 12.813 C 14.401 13.505 13.79 14 13.082 14 L 2.023 14 L 4.468 6.106 C 4.47 6.099 4.472 6.091 4.474 6.084 C 4.477 6.072 4.482 6.062 4.485 6.053 L 4.485 6.052 L 4.498 6.023 C 4.504 6.013 4.51 6.005 4.515 6 L 16 6 L 14.549 12.813 Z M 6.161 0.216 L 7.513 2.167 L 13.5 2.167 C 14.024 2.167 14.531 2.367 14.907 2.729 C 15.284 3.093 15.5 3.589 15.5 4.111 L 15.5 4.164 L 15.489 4.215 L 15.322 5 L 4.99 5 C 4.907 5 4.705 5.014 4.519 5.036 C 4.423 5.048 4.317 5.063 4.223 5.084 C 4.176 5.094 4.122 5.108 4.069 5.127 C 4.031 5.141 3.932 5.177 3.844 5.258 C 3.68 5.408 3.57 5.604 3.513 5.811 L 3.512 5.811 L 1.049 13.765 C 0.883 13.678 0.729 13.569 0.593 13.438 C 0.216 13.074 0 12.578 0 12.056 L 0 1.944 C 0 1.422 0.216 0.926 0.593 0.563 C 0.969 0.2 1.476 0 2 0 L 6.012 0 L 6.161 0.216 Z" fill="currentColor" fill-rule="nonzero"/>
</svg>
