<svg xmlns="http://www.w3.org/2000/svg" width="12" height="14" viewBox="0 0 12 14" fill="none">
  <path d="M 6 9 C 9.212 9 12 11.147 12 14 L 11 14 C 11 11.878 8.858 10 6 10 C 3.142 10 1 11.878 1 14 L 0 14 C 0 11.147 2.788 9 6 9 Z M 6 0 C 6.928 0 7.818 0.369 8.475 1.025 C 9.131 1.682 9.5 2.572 9.5 3.5 C 9.5 4.428 9.131 5.318 8.475 5.975 C 7.818 6.631 6.928 7 6 7 C 5.072 7 4.182 6.631 3.525 5.975 C 2.869 5.318 2.5 4.428 2.5 3.5 C 2.5 2.572 2.869 1.682 3.525 1.025 C 4.182 0.369 5.072 0 6 0 Z M 6 1 C 5.337 1 4.701 1.264 4.232 1.732 C 3.764 2.201 3.5 2.837 3.5 3.5 C 3.5 4.163 3.764 4.799 4.232 5.268 C 4.701 5.736 5.337 6 6 6 C 6.663 6 7.299 5.736 7.768 5.268 C 8.236 4.799 8.5 4.163 8.5 3.5 C 8.5 2.837 8.236 2.201 7.768 1.732 C 7.299 1.264 6.663 1 6 1 Z" fill="currentColor" fill-rule="nonzero"/>
</svg>
