<svg xmlns="http://www.w3.org/2000/svg" width="12" height="10" viewBox="0 0 12 10" fill="none">
  <path d="M 10.667 0 C 11.403 0 12 0.498 12 1.111 L 12 8.889 C 12 9.502 11.403 10 10.667 10 L 1.333 10 C 0.597 10 0 9.502 0 8.889 L 0 1.111 C 0 0.498 0.597 0 1.333 0 L 10.667 0 Z M 1.333 1 C 1.187 1 1.083 1.05 1.03 1.094 C 1.013 1.108 1.004 1.12 1 1.126 L 1 8.873 C 1.004 8.879 1.012 8.891 1.03 8.906 C 1.083 8.95 1.187 9 1.333 9 L 10.667 9 C 10.813 9 10.917 8.95 10.97 8.906 C 10.988 8.891 10.996 8.879 11 8.873 L 11 1.126 C 10.996 1.12 10.987 1.108 10.97 1.094 C 10.917 1.05 10.813 1 10.667 1 L 1.333 1 Z M 8.5 5 L 4.5 7 L 4.5 3 L 8.5 5 Z" fill="currentColor" fill-rule="nonzero"/>
</svg>
