<svg xmlns="http://www.w3.org/2000/svg" width="15" height="9" viewBox="0 0 15 9" fill="none">
  <path d="M 10.3 0 C 10.822 0 11.31 0.231 11.661 0.621 C 12.011 1.01 12.2 1.527 12.2 2.056 L 12.2 6.944 C 12.2 7.24 12.306 7.515 12.481 7.71 C 12.655 7.903 12.879 8 13.1 8 C 13.32 8 13.545 7.903 13.719 7.71 C 13.894 7.515 14 7.24 14 6.944 L 14 3.167 L 15 3.167 L 15 6.944 C 15 7.473 14.812 7.99 14.462 8.379 C 14.111 8.769 13.622 9 13.1 9 C 12.578 9 12.089 8.769 11.738 8.379 C 11.389 7.99 11.2 7.473 11.2 6.944 L 11.2 2.056 C 11.2 1.76 11.093 1.485 10.918 1.29 C 10.744 1.097 10.52 1 10.3 1 C 10.079 1 9.855 1.097 9.682 1.29 C 9.506 1.485 9.4 1.76 9.4 2.056 L 9.4 6.944 C 9.4 7.473 9.211 7.99 8.861 8.379 C 8.51 8.769 8.022 9 7.5 9 C 6.978 9 6.49 8.769 6.139 8.379 C 5.789 7.99 5.6 7.473 5.6 6.944 L 5.6 2.056 C 5.6 1.76 5.494 1.485 5.318 1.29 C 5.145 1.097 4.921 1 4.7 1 C 4.48 1 4.256 1.097 4.082 1.29 C 3.907 1.485 3.8 1.76 3.8 2.056 L 3.8 6.944 C 3.8 7.473 3.611 7.99 3.262 8.379 C 2.911 8.769 2.422 9 1.9 9 C 1.378 9 0.889 8.769 0.538 8.379 C 0.188 7.99 0 7.473 0 6.944 L 1 6.944 C 1 7.24 1.106 7.515 1.281 7.71 C 1.455 7.903 1.68 8 1.9 8 C 2.121 8 2.345 7.903 2.519 7.71 C 2.694 7.515 2.8 7.24 2.8 6.944 L 2.8 2.056 C 2.8 1.527 2.989 1.01 3.339 0.621 C 3.69 0.231 4.178 0 4.7 0 C 5.222 0 5.71 0.231 6.062 0.621 C 6.411 1.01 6.6 1.527 6.6 2.056 L 6.6 6.944 C 6.6 7.24 6.706 7.515 6.882 7.71 C 7.056 7.903 7.279 8 7.5 8 C 7.721 8 7.944 7.903 8.118 7.71 C 8.294 7.515 8.4 7.24 8.4 6.944 L 8.4 2.056 C 8.4 1.527 8.589 1.01 8.938 0.621 C 9.29 0.231 9.778 0 10.3 0 Z" fill="currentColor" fill-rule="nonzero"/>
</svg>
