<svg xmlns="http://www.w3.org/2000/svg" width="12" height="10" viewBox="0 0 12 10" fill="none">
  <path d="M 5.4 1.667 L 10.8 1.667 C 11.118 1.667 11.423 1.784 11.648 1.992 C 11.873 2.2 12 2.483 12 2.777 L 12 8.889 C 12 9.183 11.873 9.466 11.648 9.675 L 11.561 9.748 C 11.347 9.91 11.078 10 10.8 10 L 1.2 10 L 1.081 9.994 C 0.846 9.972 0.622 9.887 0.439 9.748 L 0.352 9.675 C 0.127 9.466 0 9.183 0 8.889 L 0 1.111 C 0 0.854 0.097 0.605 0.271 0.407 L 0.352 0.325 C 0.548 0.143 0.807 0.031 1.081 0.006 L 1.2 0 L 4.2 0 L 5.4 1.667 Z M 1.2 1 C 1.123 1 1.064 1.029 1.031 1.06 C 1.016 1.074 1.008 1.087 1.004 1.095 C 1.001 1.102 1 1.108 1 1.111 L 1 8.889 C 1 8.892 1.001 8.898 1.004 8.905 C 1.008 8.913 1.016 8.926 1.031 8.94 C 1.064 8.971 1.123 9 1.2 9 L 10.8 9 C 10.877 9 10.936 8.971 10.969 8.94 C 10.984 8.926 10.992 8.913 10.996 8.905 C 10.999 8.898 11 8.892 11 8.889 L 11 2.777 C 11 2.774 11 2.768 10.996 2.761 C 10.992 2.753 10.984 2.74 10.969 2.726 C 10.936 2.695 10.876 2.667 10.8 2.667 L 4.888 2.667 L 4.589 2.251 L 3.688 1 L 1.2 1 Z" fill="currentColor" fill-rule="nonzero"/>
</svg>
