<svg xmlns="http://www.w3.org/2000/svg" width="14" height="14" viewBox="0 0 14 14" fill="none">
  <path d="M 12.444 0 C 13.303 0 14 0.697 14 1.556 L 14 12.444 C 14 13.303 13.303 14 12.444 14 L 1.556 14 L 1.396 13.992 C 0.612 13.913 0 13.25 0 12.444 L 0 1.556 C 0 0.75 0.612 0.087 1.396 0.008 L 1.556 0 L 12.444 0 Z M 1.556 1 C 1.249 1 1 1.249 1 1.556 L 1 12.444 C 1 12.751 1.249 13 1.556 13 L 2.279 13 L 9.881 4.663 L 10.247 4.262 L 10.616 4.66 L 13 7.227 L 13 1.556 C 13 1.249 12.751 1 12.444 1 L 1.556 1 Z M 3.632 13 L 12.444 13 C 12.751 13 13 12.751 13 12.444 L 13 8.695 L 10.253 5.737 L 3.632 13 Z M 4 2 C 5.105 2 6 2.895 6 4 C 6 5.105 5.105 6 4 6 C 2.895 6 2 5.105 2 4 C 2 2.895 2.895 2 4 2 Z M 4 3 C 3.448 3 3 3.448 3 4 C 3 4.552 3.448 5 4 5 C 4.552 5 5 4.552 5 4 C 5 3.448 4.552 3 4 3 Z" fill="currentColor" fill-rule="nonzero"/>
</svg>
