<svg xmlns="http://www.w3.org/2000/svg" width="16" height="16" viewBox="0 0 16 16" fill="none">
  <path d="M 8.5 0.046 C 8.5 0.078 8.501 0.126 8.503 0.188 C 8.506 0.313 8.512 0.495 8.525 0.718 C 8.551 1.165 8.603 1.777 8.706 2.438 C 8.809 3.102 8.962 3.804 9.187 4.435 C 9.413 5.071 9.701 5.599 10.051 5.949 C 10.401 6.299 10.929 6.587 11.565 6.813 C 12.196 7.038 12.898 7.191 13.562 7.294 C 14.223 7.397 14.835 7.449 15.282 7.475 C 15.505 7.488 15.687 7.494 15.812 7.497 C 15.874 7.499 15.922 7.5 15.954 7.5 L 16 7.5 L 16 8.5 L 15.954 8.5 C 15.922 8.5 15.874 8.501 15.812 8.503 C 15.687 8.506 15.505 8.512 15.282 8.525 C 14.835 8.551 14.223 8.603 13.562 8.706 C 12.898 8.809 12.196 8.962 11.565 9.187 C 10.929 9.413 10.401 9.701 10.051 10.051 C 9.701 10.401 9.413 10.929 9.187 11.565 C 8.962 12.196 8.809 12.898 8.706 13.562 C 8.603 14.223 8.551 14.835 8.525 15.282 C 8.512 15.505 8.506 15.687 8.503 15.812 C 8.502 15.866 8.5 15.91 8.5 15.941 L 8.5 16 L 7.5 16 L 7.5 15.954 C 7.5 15.922 7.499 15.874 7.497 15.812 C 7.494 15.687 7.488 15.505 7.475 15.282 C 7.449 14.835 7.397 14.223 7.294 13.562 C 7.191 12.898 7.038 12.196 6.813 11.565 C 6.587 10.929 6.299 10.401 5.949 10.051 C 5.599 9.701 5.071 9.413 4.435 9.187 C 3.804 8.962 3.102 8.809 2.438 8.706 C 1.777 8.603 1.165 8.551 0.718 8.525 C 0.495 8.512 0.313 8.506 0.188 8.503 C 0.126 8.501 0.078 8.5 0.046 8.5 L 0 8.5 L 0 7.5 L 0.046 7.5 C 0.078 7.5 0.126 7.499 0.188 7.497 C 0.313 7.494 0.495 7.488 0.718 7.475 C 1.165 7.449 1.777 7.397 2.438 7.294 C 3.102 7.191 3.804 7.038 4.435 6.813 C 5.071 6.587 5.599 6.299 5.949 5.949 C 6.299 5.599 6.587 5.071 6.813 4.435 C 7.038 3.804 7.191 3.102 7.294 2.438 C 7.397 1.777 7.449 1.165 7.475 0.718 C 7.488 0.495 7.494 0.313 7.497 0.188 C 7.499 0.126 7.5 0.078 7.5 0.046 L 7.5 0 L 8.5 0 L 8.5 0.046 Z M 14.5 1.5 L 16 1.5 L 16 2.5 L 14.5 2.5 L 14.5 4 L 13.5 4 L 13.5 2.5 L 12 2.5 L 12 1.5 L 13.5 1.5 L 13.5 0 L 14.5 0 L 14.5 1.5 Z" fill="currentColor" fill-rule="nonzero"/>
</svg>
