<svg xmlns="http://www.w3.org/2000/svg" width="14.510" height="12" viewBox="0 0 14.510 12" fill="none">
  <path d="M 14.25 10.277 C 14.25 11.304 13.298 12 12.306 12 L 2.194 12 C 1.202 12 0.25 11.304 0.25 10.277 L 0.25 8.444 L 1.25 8.444 L 1.25 10.277 C 1.25 10.601 1.591 11 2.194 11 L 12.306 11 C 12.909 11 13.25 10.601 13.25 10.277 L 13.25 8.139 L 14.25 8.139 L 14.25 10.277 Z M 10.145 9.053 L 9.183 9.053 L 8.653 7.645 L 5.799 7.645 L 5.27 9.053 L 4.309 9.053 L 6.602 2.947 L 7.851 2.947 L 10.145 9.053 Z M 0.76 5.25 C 1.174 5.25 1.51 5.586 1.51 6 C 1.51 6.414 1.174 6.75 0.76 6.75 L 0.75 6.75 C 0.336 6.75 0 6.414 0 6 C 0 5.586 0.336 5.25 0.75 5.25 L 0.76 5.25 Z M 13.76 5.25 C 14.174 5.25 14.51 5.586 14.51 6 C 14.51 6.414 14.174 6.75 13.76 6.75 L 13.75 6.75 C 13.336 6.75 13 6.414 13 6 C 13 5.586 13.336 5.25 13.75 5.25 L 13.76 5.25 Z M 6.174 6.645 L 8.277 6.645 L 7.226 3.845 L 6.174 6.645 Z M 12.306 0 C 13.298 0 14.25 0.696 14.25 1.723 L 14.25 3.861 L 13.25 3.861 L 13.25 1.723 C 13.25 1.399 12.909 1 12.306 1 L 2.194 1 C 1.591 1 1.25 1.399 1.25 1.723 L 1.25 3.861 L 0.25 3.861 L 0.25 1.723 C 0.25 0.696 1.202 0 2.194 0 L 12.306 0 Z" fill="currentColor" fill-rule="nonzero"/>
</svg>
