<svg xmlns="http://www.w3.org/2000/svg" width="14" height="12" viewBox="0 0 14 12" fill="none">
  <path d="M 12 0 C 13.105 0 14 0.895 14 2 L 14 5.25 C 13.586 5.25 13.25 5.586 13.25 6 C 13.25 6.414 13.586 6.75 14 6.75 L 14 10 C 14 11.105 13.105 12 12 12 L 2 12 C 0.895 12 0 11.105 0 10 L 0 6.75 L 0.01 6.75 C 0.424 6.75 0.76 6.414 0.76 6 C 0.76 5.586 0.424 5.25 0.01 5.25 L 0 5.25 L 0 2 C 0 0.895 0.895 0 2 0 L 12 0 Z M 4.059 9.053 L 5.02 9.053 L 5.549 7.645 L 8.403 7.645 L 8.933 9.053 L 9.895 9.053 L 7.601 2.947 L 6.352 2.947 L 4.059 9.053 Z M 8.027 6.645 L 5.924 6.645 L 6.976 3.845 L 8.027 6.645 Z" fill="currentColor" fill-rule="nonzero"/>
</svg>
