<svg xmlns="http://www.w3.org/2000/svg" width="16" height="14.500" viewBox="0 0 16 14.500" fill="none">
  <path d="M 11 4.5 C 12.657 4.5 14 5.843 14 7.5 L 14 11.5 C 14 13.157 12.657 14.5 11 14.5 L 5 14.5 C 3.343 14.5 2 13.157 2 11.5 L 2 7.5 C 2 5.843 3.343 4.5 5 4.5 L 7.5 4.5 L 7.5 2.912 C 6.918 2.706 6.5 2.153 6.5 1.5 C 6.5 0.672 7.172 0 8 0 C 8.828 0 9.5 0.672 9.5 1.5 C 9.5 2.153 9.082 2.706 8.5 2.912 L 8.5 4.5 L 11 4.5 Z M 1 11.5 C 0.448 11.5 0 11.052 0 10.5 L 0 8.5 C 0 7.948 0.448 7.5 1 7.5 L 1 11.5 Z M 6 7.5 C 5.448 7.5 5 7.948 5 8.5 L 5 10.5 C 5 11.052 5.448 11.5 6 11.5 C 6.552 11.5 7 11.052 7 10.5 L 7 8.5 C 7 7.948 6.552 7.5 6 7.5 Z M 10 7.5 C 9.448 7.5 9 7.948 9 8.5 L 9 10.5 C 9 11.052 9.448 11.5 10 11.5 C 10.552 11.5 11 11.052 11 10.5 L 11 8.5 C 11 7.948 10.552 7.5 10 7.5 Z M 15 7.5 C 15.552 7.5 16 7.948 16 8.5 L 16 10.5 C 16 11.052 15.552 11.5 15 11.5 L 15 7.5 Z" fill="currentColor" fill-rule="nonzero"/>
</svg>
