<svg xmlns="http://www.w3.org/2000/svg" width="16" height="14" viewBox="0 0 16 14" fill="none">
  <path d="M 6.161 0.216 L 7.513 2.167 L 14 2.167 C 14.524 2.167 15.031 2.367 15.407 2.729 C 15.784 3.093 16 3.589 16 4.111 L 15 4.111 C 15 3.867 14.899 3.629 14.714 3.45 C 14.528 3.271 14.271 3.167 14 3.167 L 6.988 3.167 L 6.839 2.951 L 5.488 1 L 2 1 C 1.729 1 1.472 1.104 1.286 1.283 C 1.101 1.462 1 1.7 1 1.944 L 1 12.056 C 1 12.3 1.101 12.538 1.286 12.717 C 1.384 12.811 1.503 12.884 1.632 12.933 L 3.506 5.831 C 3.562 5.617 3.674 5.413 3.844 5.258 C 4.016 5.1 4.242 5 4.49 5 L 14.973 5 C 15.158 5 15.333 5.057 15.483 5.153 C 15.632 5.249 15.75 5.381 15.834 5.527 C 15.918 5.674 15.97 5.837 15.99 6.003 C 16.011 6.169 15.999 6.339 15.957 6.501 L 15.957 6.502 L 14.079 13.627 C 14.021 13.847 13.823 14 13.596 14 L 2 14 C 1.476 14 0.969 13.8 0.593 13.438 C 0.216 13.074 0 12.578 0 12.056 L 0 1.944 C 0 1.422 0.216 0.926 0.593 0.563 C 0.969 0.2 1.476 0 2 0 L 6.012 0 L 6.161 0.216 Z M 4.515 6 C 4.504 6.012 4.485 6.039 4.474 6.084 L 4.474 6.086 L 2.649 13 L 13.211 13 L 14.989 6.249 C 14.999 6.211 15.002 6.168 14.997 6.125 C 14.992 6.083 14.979 6.048 14.966 6.024 C 14.959 6.012 14.951 6.005 14.946 6 L 4.515 6 Z" fill="currentColor" fill-rule="nonzero"/>
</svg>
