<svg xmlns="http://www.w3.org/2000/svg" width="15" height="13" viewBox="0 0 15 13" fill="none">
  <path d="M 10.124 5.609 L 10.249 6.094 C 9.636 6.252 9.089 6.601 8.686 7.09 C 8.283 7.579 8.045 8.182 8.006 8.814 C 7.967 9.447 8.129 10.076 8.47 10.61 C 8.618 10.842 8.798 11.049 9 11.23 L 9 10 L 10 10 L 10 13 L 7 13 L 7 12 L 8.36 12 C 8.079 11.753 7.83 11.467 7.626 11.147 C 7.172 10.435 6.956 9.597 7.008 8.754 C 7.059 7.911 7.376 7.106 7.913 6.454 C 8.45 5.802 9.18 5.337 9.998 5.125 L 10.124 5.609 Z M 15 6 L 13.644 6 C 13.923 6.247 14.171 6.53 14.374 6.849 C 14.828 7.561 15.044 8.399 14.992 9.242 C 14.941 10.085 14.624 10.89 14.087 11.542 C 13.55 12.194 12.82 12.66 12.002 12.871 L 11.876 12.387 L 11.751 11.902 C 12.364 11.744 12.912 11.395 13.314 10.906 C 13.717 10.418 13.955 9.814 13.994 9.182 C 14.033 8.549 13.871 7.92 13.53 7.386 C 13.382 7.154 13.203 6.946 13 6.765 L 13 8 L 12 8 L 12 5 L 15 5 L 15 6 Z M 4 9 L 0 9 L 0 8 L 4 8 L 4 9 Z M 5 5 L 0 5 L 0 4 L 5 4 L 5 5 Z M 14 1 L 0 1 L 0 0 L 14 0 L 14 1 Z" fill="currentColor" fill-rule="nonzero"/>
</svg>
